<svg aria-hidden="true" style="position: absolute; width: 0; height: 0; overflow: hidden;" version="1.1" xmlns="http://www.w3.org/2000/svg" xmlns:xlink="http://www.w3.org/1999/xlink">
<defs>
<symbol id="icon-github_icon" viewBox="0 0 32 32">
<path fill="#3e75c3" style="fill: var(--color1, #3e75c3)" d="M15.999 0.333c-8.835 0-15.999 7.191-15.999 16.064 0 7.096 4.584 13.117 10.943 15.241 0.8 0.148 1.092-0.349 1.092-0.774 0-0.381-0.014-1.392-0.022-2.732-4.451 0.971-5.39-2.154-5.39-2.154-0.727-1.855-1.776-2.349-1.776-2.349-1.453-0.997 0.11-0.977 0.11-0.977 1.605 0.113 2.45 1.655 2.45 1.655 1.428 2.455 3.745 1.746 4.657 1.334 0.145-1.038 0.559-1.746 1.016-2.148-3.553-0.405-7.288-1.783-7.288-7.938 0-1.754 0.623-3.188 1.647-4.311-0.165-0.406-0.714-2.039 0.156-4.251 0 0 1.344-0.432 4.4 1.646 1.277-0.357 2.645-0.534 4.006-0.541 1.359 0.007 2.728 0.185 4.006 0.541 3.054-2.078 4.395-1.646 4.395-1.646 0.873 2.212 0.324 3.844 0.159 4.251 1.026 1.123 1.645 2.557 1.645 4.311 0 6.17-3.741 7.529-7.305 7.926 0.574 0.496 1.086 1.476 1.086 2.975 0 2.148-0.020 3.879-0.020 4.407 0 0.43 0.288 0.93 1.1 0.772 6.353-2.129 10.933-8.145 10.933-15.239 0-8.873-7.164-16.064-16.001-16.064z"></path>
</symbol>
<symbol id="icon-linkedin_icon" viewBox="0 0 32 32">
<path fill="#007ab9" style="fill: var(--color2, #007ab9)" d="M32 16c0 8.837-7.163 16-16 16s-16-7.163-16-16c0-8.837 7.163-16 16-16s16 7.163 16 16z"></path>
<path fill="#f1f2f2" style="fill: var(--color3, #f1f2f2)" d="M25.56 17.287v6.596h-3.824v-6.154c0-1.545-0.552-2.601-1.937-2.601-1.057 0-1.684 0.71-1.962 1.398-0.101 0.246-0.127 0.587-0.127 0.932v6.424h-3.825s0.051-10.423 0-11.502h3.825v1.63c-0.008 0.013-0.019 0.025-0.025 0.038h0.025v-0.038c0.508-0.782 1.415-1.9 3.447-1.9 2.516 0 4.403 1.644 4.403 5.176zM9.884 6.836c-1.308 0-2.164 0.859-2.164 1.987 0 1.104 0.831 1.988 2.114 1.988h0.025c1.334 0 2.163-0.884 2.163-1.988-0.025-1.128-0.829-1.987-2.138-1.987zM7.948 23.884h3.823v-11.503h-3.823v11.503z"></path>
</symbol>
<symbol id="icon-mail_icon" viewBox="0 0 32 32">
<path fill="#267cb5" style="fill: var(--color4, #267cb5)" d="M32 16c0 8.837-7.163 16-16 16s-16-7.163-16-16c0-8.837 7.163-16 16-16s16 7.163 16 16z"></path>
<path fill="#fff" style="fill: var(--color5, #fff)" d="M16 18.1l9.55-8.175c-0.15-0.1-0.35-0.175-0.55-0.175h-18c-0.2 0-0.4 0.075-0.55 0.175l9.55 8.175z"></path>
<path fill="#fff" style="fill: var(--color5, #fff)" d="M16.65 18.85c-0.375 0.325-0.925 0.325-1.3 0l-9.35-7.975v10.375c0 0.55 0.45 1 1 1h18c0.55 0 1-0.45 1-1v-10.4l-9.35 8z"></path>
</symbol>
<symbol id="icon-phone_icon" viewBox="0 0 32 32">
<path d="M16 2c7.719 0 14 6.281 14 14s-6.281 14-14 14-14-6.281-14-14 6.281-14 14-14zM16 0c-8.836 0-16 7.164-16 16s7.164 16 16 16 16-7.164 16-16-7.164-16-16-16zM24.92 21.35l-0.090-0.273c-0.211-0.629-0.906-1.285-1.547-1.461l-2.365-0.646c-0.641-0.174-1.555 0.061-2.025 0.531l-0.855 0.855c-3.109-0.842-5.549-3.281-6.389-6.391l0.855-0.855c0.469-0.469 0.703-1.383 0.529-2.025l-0.645-2.365c-0.174-0.641-0.834-1.336-1.463-1.547l-0.27-0.090c-0.631-0.211-1.531 0.002-2 0.473l-1.281 1.281c-0.229 0.227-0.375 0.877-0.375 0.879-0.043 4.066 1.551 7.982 4.426 10.859 2.867 2.867 6.77 4.459 10.822 4.424 0.021 0 0.691-0.143 0.92-0.371l1.281-1.281c0.469-0.467 0.68-1.367 0.471-1.996z"></path>
</symbol>
</defs>
</svg>
